<svg width="88" height="24" viewBox="0 0 88 24" fill="none" xmlns="http://www.w3.org/2000/svg">
<g clip-path="url(#clip0_7644_716)">
<path d="M87.9999 0H0.00158691V24H87.9999V0Z" fill="#3B5999"/>
<path fill-rule="evenodd" clip-rule="evenodd" d="M10.4326 5.09009C13.5383 5.09009 16.0578 7.11131 16.0578 9.60485C16.0578 12.0972 13.5383 14.1184 10.4326 14.1184C7.32541 14.1184 4.80737 12.0972 4.80737 9.60485C4.80737 7.11131 7.32541 5.09009 10.4326 5.09009Z" fill="#2A609F"/>
<path fill-rule="evenodd" clip-rule="evenodd" d="M19.1844 16.825H58.4398V6.57306H15.7303C15.9113 6.73744 16.0757 6.91224 16.2268 7.10094C17.6219 8.84433 17.2794 11.082 15.5569 12.5082C15.4223 12.6217 15.2773 12.7282 15.1248 12.8301L15.3206 13.0755L15.4911 13.2873L15.6257 13.4563L15.983 13.9009C16.1146 13.8893 16.2477 13.902 16.3733 13.9356C16.5722 13.9425 16.7666 13.9969 16.9281 14.0965C17.0178 14.1498 17.0985 14.2181 17.1643 14.2979L19.014 16.6097L19.1844 16.825Z" fill="#2A609F"/>
<path fill-rule="evenodd" clip-rule="evenodd" d="M52.4782 8.63595H55.9801V9.77969H53.972V11.0832H55.7274V12.2269H53.972V13.6184H55.9801V14.7633H52.4782V8.63595ZM18.4637 8.63595H21.9642V9.77969H19.9575V11.0832H21.7115V12.2269H19.9575V13.6184H21.9642V14.7633H18.4637V8.63595ZM22.3694 8.63595H24.1159L24.6751 10.1501H24.7409L25.2672 8.63595H27.0227L25.5095 11.5671L27.1333 14.7633H25.3764L24.7065 12.9666H24.6631L23.9933 14.7633H22.2602L23.8407 11.5671L22.3694 8.63595ZM27.6582 10.193C27.6582 9.7056 27.8212 9.31548 28.1471 9.0226C28.4731 8.72856 28.9725 8.5827 29.6454 8.5827C30.3108 8.5827 30.8027 8.71351 31.1212 8.97398C31.4397 9.23561 31.5982 9.57479 31.5982 9.99038C31.5982 10.0205 31.5982 10.0483 31.5982 10.0749C31.5982 10.1015 31.5937 10.1281 31.5863 10.1582L30.1493 10.3608C30.1418 10.1791 30.094 10.0274 30.0028 9.90703C29.9131 9.7878 29.7919 9.7276 29.6409 9.7276C29.5392 9.7276 29.457 9.74265 29.3957 9.77506C29.3344 9.80748 29.285 9.84684 29.2491 9.8943C29.2133 9.9406 29.1863 9.9927 29.1729 10.0483C29.1594 10.1038 29.152 10.1524 29.152 10.193V13.3197C29.152 13.4019 29.1774 13.4806 29.2282 13.557C29.2791 13.6334 29.4002 13.6716 29.5886 13.6716C29.7336 13.6716 29.8532 13.6184 29.9445 13.5131C30.0342 13.4077 30.0835 13.248 30.091 13.0373L31.5653 13.1959C31.5593 13.6832 31.3904 14.0745 31.0599 14.3709C30.7325 14.6672 30.2555 14.8154 29.6349 14.8154C28.9456 14.8154 28.4447 14.6869 28.1307 14.4287C27.8167 14.1706 27.6582 13.7828 27.6582 13.2665V10.193ZM32.4102 8.63595H33.9024V11.0647H34.8579V8.63595H36.3502V14.7633H34.8579V12.2269H33.9024V14.7633H32.4102V8.63595ZM38.4346 8.63595H40.2559L41.7152 14.7633H40.1467L39.9164 13.5663H38.7965L38.5662 14.7633H36.9857L38.4346 8.63595ZM39.5531 11.4617L39.3886 10.2196H39.3228L39.1583 11.4617L39.0058 12.4388H39.6966L39.5531 11.4617ZM42.3403 8.63595H43.6456L44.5473 10.4141L45.0617 11.5323H45.117V8.63595H46.5764V14.7633H45.3084L44.4127 12.9759L43.8879 11.8136H43.834V14.7633H42.3403V8.63595ZM47.6619 10.193C47.6619 9.7056 47.8324 9.31548 48.1733 9.0226C48.5128 8.72856 49.0047 8.5827 49.6477 8.5827C49.9916 8.5827 50.2906 8.62206 50.5433 8.70078C50.7945 8.7795 51.0039 8.89063 51.1684 9.03186C51.3328 9.17194 51.451 9.33979 51.5197 9.53312C51.5885 9.7276 51.6125 9.93597 51.5915 10.1582L50.1426 10.3608C50.1351 10.1791 50.0873 10.0274 49.9976 9.90703C49.9078 9.7878 49.7867 9.7276 49.6372 9.7276C49.5385 9.7276 49.4563 9.74265 49.3965 9.77506C49.3366 9.80748 49.2858 9.84684 49.2514 9.8943C49.2155 9.9406 49.1901 9.9927 49.1767 10.0483C49.1617 10.1038 49.1542 10.1524 49.1542 10.193V13.3197C49.1542 13.4019 49.1796 13.4806 49.2305 13.557C49.2798 13.6334 49.398 13.6716 49.5834 13.6716C49.7254 13.6716 49.8435 13.6404 49.9377 13.579C50.029 13.5177 50.0768 13.4366 50.0768 13.3371V12.3948H49.5714V11.3471H51.5676V13.2746C51.5676 13.7805 51.4001 14.1625 51.0637 14.4241C50.7272 14.6857 50.2532 14.8154 49.6372 14.8154C48.9494 14.8154 48.4485 14.6869 48.1344 14.4287C47.8189 14.1706 47.6619 13.7828 47.6619 13.2665V10.193Z" fill="white"/>
<path fill-rule="evenodd" clip-rule="evenodd" d="M13.3469 7.27806C12.5589 6.89257 11.7679 6.51402 10.9769 6.13085C10.9245 6.10422 10.8692 6.0938 10.8184 6.11927C10.7601 6.14821 10.7511 6.19915 10.7645 6.25008C10.8139 6.43646 10.8692 6.62168 10.9201 6.80806C10.9305 6.84742 10.923 6.86942 10.8632 6.87173C8.20315 6.98634 6.05145 8.81076 6.77217 10.9697C6.79011 11.0265 6.81105 11.0855 6.89478 11.1075C6.9531 11.1226 7.01291 11.1087 7.05328 11.0774C7.08618 11.0543 7.10711 11.0207 7.1101 10.9813C7.25963 9.30623 9.41731 8.48663 11.2819 8.40443C11.3298 8.40212 11.3627 8.41948 11.3686 8.46232C11.4135 8.70658 11.5092 8.98093 11.5765 9.22519C11.5914 9.28539 11.6258 9.3178 11.6901 9.32707C11.7589 9.33633 11.8038 9.30276 11.8396 9.26224C12.366 8.65911 12.8878 8.03862 13.3917 7.42276C13.4381 7.3672 13.4187 7.31279 13.3469 7.27806ZM7.51831 11.9306C8.30632 12.3172 9.09881 12.6958 9.88682 13.0789C9.94215 13.1044 9.99598 13.1148 10.0483 13.0894C10.1051 13.0604 10.1126 13.0083 10.0992 12.9586C10.0498 12.7733 9.99448 12.587 9.94514 12.4017C9.93467 12.3624 9.94215 12.3404 10.0035 12.3381C12.662 12.2223 14.8152 10.3979 14.093 8.23889C14.0751 8.18333 14.0527 8.12197 13.9719 8.10229C13.9121 8.08724 13.8538 8.09998 13.8119 8.13123C13.7805 8.15439 13.7581 8.18796 13.7536 8.22847C13.6071 9.90357 11.4479 10.7232 9.58328 10.8042C9.53394 10.8065 9.50403 10.7892 9.49506 10.7463C9.45319 10.5021 9.356 10.2277 9.29021 9.98344C9.27227 9.92325 9.23937 9.89199 9.17657 9.88273C9.1048 9.87231 9.06143 9.90588 9.02555 9.94756C8.49921 10.5507 7.97586 11.1712 7.47345 11.7859C7.42859 11.8426 7.44654 11.8958 7.51831 11.9306Z" fill="white"/>
<path fill-rule="evenodd" clip-rule="evenodd" d="M18.0391 16.8979L16.1401 14.5248C16.0743 14.4415 15.9906 14.372 15.8993 14.3164C15.6407 14.159 15.2982 14.1104 14.9857 14.1891L14.5626 13.6601L14.4235 13.4864L14.2486 13.2688L14.0467 13.0176C14.2037 12.9122 14.3532 12.8022 14.4923 12.6865C16.2597 11.2221 16.6126 8.92418 15.1801 7.13449C14.9768 6.88212 14.748 6.6506 14.4953 6.44222C14.0751 6.09031 13.5921 5.80437 13.0718 5.58558C12.4483 5.32395 11.7724 5.15841 11.0771 5.09706C10.8663 5.07854 10.6539 5.06927 10.4401 5.06927C9.41135 5.07159 8.37064 5.30196 7.44058 5.78122C5.77335 6.64134 4.86572 8.09069 4.86572 9.5713C4.86572 10.4013 5.15431 11.2406 5.75391 11.9907C6.94266 13.476 9.03753 14.2099 11.0846 14.0293C11.6558 13.9796 12.224 13.8568 12.7667 13.6612L12.9866 13.9356L13.7133 14.8455C13.4157 15.1106 13.3619 15.5111 13.6131 15.8271L15.7992 18.558C15.9935 18.7999 16.3195 18.9307 16.653 18.9307C16.8399 18.9307 17.0298 18.8891 17.1987 18.8022L17.269 18.7652L18.0211 18.3786C18.4907 18.1355 18.6282 17.633 18.3262 17.2557L18.0391 16.8979ZM6.43426 11.6411C5.04815 9.91049 5.61037 7.62417 7.67085 6.43875C7.73814 6.40055 7.80692 6.36351 7.8772 6.32646C8.86408 5.81826 9.9975 5.63767 11.0771 5.7488C11.11 5.75228 11.1414 5.75575 11.1728 5.75922C12.3825 5.90508 13.5159 6.41907 14.2964 7.25141C14.3622 7.32318 14.428 7.39611 14.4893 7.47252C14.4938 7.47715 14.4968 7.48062 14.4998 7.48525C14.6777 7.70752 14.8227 7.93904 14.9379 8.17636C15.207 8.73086 15.3042 9.31778 15.2414 9.89081C15.1188 11.038 14.3577 12.1285 13.0568 12.7999C12.4393 13.1171 11.7679 13.3058 11.0861 13.3776C11.0352 13.3834 10.9859 13.3869 10.935 13.3903C9.78068 13.4795 8.61437 13.2306 7.66637 12.6842C7.19087 12.4098 6.7707 12.0602 6.43426 11.6411Z" fill="white"/>
<path fill-rule="evenodd" clip-rule="evenodd" d="M80.851 6.57306H58.3472V16.825H80.851C82.1429 16.825 83.1911 15.9846 83.1911 14.9474V8.45189C83.1911 7.4135 82.1429 6.57306 80.851 6.57306Z" fill="white"/>
<path fill-rule="evenodd" clip-rule="evenodd" d="M62.0345 10.5368C62.0494 10.6016 62.0853 10.663 62.1436 10.722C62.202 10.781 62.2872 10.8378 62.3993 10.8945C62.513 10.9501 62.6715 11.0091 62.8763 11.0739C63.2262 11.1851 63.5013 11.3031 63.7062 11.4258C63.9096 11.5497 64.0636 11.6852 64.1697 11.831C64.2759 11.978 64.3447 12.1436 64.3776 12.3288C64.412 12.5129 64.4284 12.7235 64.4284 12.9585C64.4284 13.2399 64.3955 13.4957 64.3327 13.7249C64.2714 13.953 64.1652 14.1486 64.0157 14.3095C63.8662 14.4716 63.6628 14.5966 63.4056 14.6846C63.15 14.7714 62.8285 14.8154 62.4397 14.8154C62.0898 14.8154 61.7878 14.7749 61.5351 14.6927C61.2839 14.6093 61.079 14.4947 60.9205 14.35C60.7635 14.2053 60.6484 14.0363 60.5751 13.8441C60.5018 13.6531 60.4659 13.4482 60.4659 13.2306L61.9687 13.0025C61.9836 13.226 62.024 13.3927 62.0943 13.5049C62.1631 13.6161 62.2917 13.6716 62.4786 13.6716C62.5877 13.6716 62.673 13.6508 62.7343 13.6103C62.7956 13.5698 62.8434 13.5165 62.8748 13.4517C62.9077 13.3869 62.9287 13.3116 62.9406 13.2225C62.9496 13.1345 62.9556 13.0477 62.9556 12.9597C62.9556 12.837 62.9451 12.734 62.9242 12.6518C62.9002 12.5696 62.8644 12.5001 62.809 12.4411C62.7537 12.382 62.6789 12.3311 62.5832 12.2871C62.489 12.2431 62.3709 12.198 62.2319 12.1517C61.8595 12.0278 61.559 11.9005 61.3317 11.7685C61.1059 11.6365 60.9325 11.4965 60.8114 11.346C60.6902 11.1978 60.6125 11.0392 60.5751 10.8725C60.5392 10.7058 60.5213 10.5217 60.5213 10.3226C60.5213 10.0714 60.5572 9.83757 60.6304 9.62341C60.7037 9.41041 60.8188 9.2275 60.9758 9.0747C61.1343 8.92305 61.3377 8.80265 61.5904 8.71351C61.8431 8.62669 62.1481 8.5827 62.5055 8.5827C62.8868 8.5827 63.2023 8.63132 63.4505 8.72741C63.6987 8.82465 63.8946 8.94851 64.0367 9.09669C64.1802 9.24718 64.2804 9.41272 64.3387 9.59447C64.3985 9.77622 64.4284 9.95334 64.4284 10.1235L62.9556 10.3782C62.9556 10.2902 62.9496 10.208 62.9406 10.1328C62.9287 10.0552 62.9047 9.98691 62.8703 9.9244C62.833 9.86304 62.7851 9.81442 62.7238 9.77969C62.6625 9.74496 62.5773 9.7276 62.4681 9.7276C62.3664 9.7276 62.2872 9.74612 62.2304 9.78432C62.172 9.82253 62.1272 9.86883 62.0943 9.9244C62.0614 9.97996 62.039 10.0436 62.0285 10.1142C62.018 10.1849 62.0121 10.252 62.0121 10.3168C62.0121 10.399 62.0195 10.472 62.0345 10.5368ZM80.4129 13.2665C80.4129 13.7944 80.2499 14.1845 79.9194 14.438C79.592 14.6904 79.1045 14.8154 78.4616 14.8154C77.1652 14.8154 76.5177 14.3002 76.5177 13.2665V10.1235C76.5177 9.59447 76.6897 9.20551 77.0351 8.95662C77.379 8.70657 77.8545 8.5827 78.4616 8.5827C79.1269 8.5827 79.6189 8.70657 79.9359 8.95662C80.2559 9.20551 80.4129 9.59447 80.4129 10.1235V13.2665ZM78.4616 9.70097C78.3359 9.70097 78.2298 9.72991 78.1431 9.78895C78.0548 9.84684 78.0115 9.94408 78.0115 10.0795V13.3197C78.0115 13.461 78.0548 13.5582 78.1431 13.6138C78.2298 13.6705 78.3359 13.6983 78.4616 13.6983C78.5857 13.6983 78.6888 13.6705 78.7726 13.6138C78.8563 13.5582 78.8997 13.461 78.8997 13.3197V10.0795C78.8997 9.94408 78.8563 9.84684 78.7726 9.78895C78.6888 9.72991 78.5857 9.70097 78.4616 9.70097ZM75.5308 14.7633H74.04V11.9016H73.9952L73.6348 12.852L73.3402 13.5663H72.3459L72.0289 12.7826L71.679 11.875H71.6252V14.7633H70.1329V8.63595H71.5265L72.2831 10.2728L72.799 11.4884H72.8647L73.3911 10.2462L74.1387 8.63595H75.5308V14.7633ZM69.155 13.2665C69.155 13.7944 68.992 14.1845 68.6615 14.438C68.3341 14.6904 67.8466 14.8154 67.2036 14.8154C65.9072 14.8154 65.2598 14.3002 65.2598 13.2665V8.64406H66.7536V13.2931C66.7536 13.4343 66.7969 13.5316 66.8851 13.5871C66.9719 13.6439 67.078 13.6716 67.2036 13.6716C67.3278 13.6716 67.4309 13.6439 67.5147 13.5871C67.5999 13.5316 67.6418 13.4343 67.6418 13.2931V8.64406H69.155V13.2665Z" fill="#2A609F"/>
</g>
<defs>
<clipPath id="clip0_7644_716">
<rect width="88" height="24" rx="4" fill="white"/>
</clipPath>
</defs>
</svg>
