<?xml version="1.0" encoding="UTF-8"?>
<svg xmlns="http://www.w3.org/2000/svg" xmlns:xlink="http://www.w3.org/1999/xlink" width="256pt" height="256pt" viewBox="0 0 256 256" version="1.1">
<g id="surface1">
<path style=" stroke:none;fill-rule:nonzero;fill:rgb(0%,0%,0%);fill-opacity:1;" d="M 256 128 C 256 198.691406 198.691406 256 128 256 C 57.308594 256 0 198.691406 0 128 C 0 57.308594 57.308594 0 128 0 C 198.691406 0 256 57.308594 256 128 Z M 256 128 "/>
<path style="fill:none;stroke-width:80;stroke-linecap:round;stroke-linejoin:round;stroke:rgb(100%,100%,100%);stroke-opacity:1;stroke-miterlimit:4;" d="M 680.389404 725.616455 L 999.969482 1729.217529 L 525.756836 1432.067871 L 680.389404 725.616455 L 999.969482 289.001465 L 999.969482 595.214844 L 525.756836 1432.067871 L 1474.67041 1432.067871 L 1000.457764 595.214844 L 1000.457764 289.001465 L 1320.037842 725.616455 L 1474.67041 1432.067871 L 1000.457764 1729.217529 L 1320.037842 725.616455 " transform="matrix(0.128,0,0,0.128,0,0)"/>
</g>
</svg>
