<svg xmlns="http://www.w3.org/2000/svg" xmlns:xlink="http://www.w3.org/1999/xlink" version="1.1" id="Слой_1" x="0px" y="0px" viewBox="9 9 42 42" style="enable-background:new 0 0 42 42;" xml:space="preserve" width="42" height="42">
<style type="text/css">
	.st0{fill:#0088CC;}
	.st1{fill:none;stroke:#FFFFFF;stroke-width:1.7;stroke-miterlimit:10;}
</style>
<g id="примеры">
</g>
<g style="&#10;    transform: scale(1.42);&#10;">
	<path class="st0" d="M35.7,19.3c-0.3-2.5-1.2-4.7-2.6-6.8c-3.1-4.6-8.7-7-14.2-6.2c-2,0.3-3.8,0.9-5.5,1.9   c-4.3,2.7-6.7,6.5-7.2,11.6c-0.1,1.4,0,2.8,0.3,4.2c0.7,3.4,2.5,6.2,5.1,8.4c2.7,2.3,5.9,3.5,9.8,3.5c0.3,0,0.9,0,1.5-0.1   c3.2-0.3,6-1.7,8.3-3.9c1.1-1,2-2.2,2.7-3.6C35.5,25.5,36.1,22.5,35.7,19.3z"/>
	<path class="st1" d="M21.1,29.8l7.6-13.1c0.5-0.9-0.1-2.1-1.2-2.1H14.6c-1.1,0-1.8,1.2-1.2,2.1l7.6,13.1C21,29.9,21,29.9,21.1,29.8   z"/>
	<line class="st1" x1="21" y1="14.6" x2="21" y2="29.8"/>
</g>
</svg>