<?xml version="1.0" encoding="UTF-8"?>
<svg xmlns="http://www.w3.org/2000/svg" xmlns:xlink="http://www.w3.org/1999/xlink" width="256pt" height="256pt" viewBox="0 0 256 256" version="1.1">
<g id="surface1">
<path style=" stroke:none;fill-rule:evenodd;fill:rgb(16.862745%,16.470588%,16.078431%);fill-opacity:1;" d="M 255.996094 128 C 255.996094 198.691406 198.691406 255.996094 128 255.996094 C 57.308594 255.996094 0 198.691406 0 128 C 0 57.308594 57.308594 0 128 0 C 198.691406 0 255.996094 57.308594 255.996094 128 Z M 255.996094 128 "/>
<path style=" stroke:none;fill-rule:evenodd;fill:rgb(99.607843%,75.294118%,20%);fill-opacity:1;" d="M 235.632812 128 C 235.632812 187.445312 187.445312 235.632812 128 235.632812 C 68.554688 235.632812 20.363281 187.445312 20.363281 128 C 20.363281 68.554688 68.554688 20.363281 128 20.363281 C 187.445312 20.363281 235.632812 68.554688 235.632812 128 Z M 235.632812 128 "/>
<path style=" stroke:none;fill-rule:nonzero;fill:rgb(16.862745%,16.470588%,16.078431%);fill-opacity:1;" d="M 169.695312 185.210938 C 169.695312 188.121094 167.757812 189.089844 164.847656 189.089844 L 140.605469 189.089844 L 140.605469 198.785156 C 140.605469 200.726562 139.636719 201.695312 137.695312 201.695312 L 118.300781 201.695312 C 116.363281 201.695312 115.394531 200.726562 115.394531 198.785156 L 115.394531 189.089844 L 94.058594 189.089844 C 91.152344 189.089844 89.210938 189.089844 88.242188 187.148438 C 87.273438 186.179688 86.300781 184.242188 86.300781 182.300781 L 86.300781 176.484375 C 86.300781 175.515625 86.300781 174.542969 87.273438 172.605469 C 87.273438 170.664062 88.242188 169.695312 89.210938 168.726562 C 95.03125 156.121094 101.816406 143.515625 109.574219 130.90625 C 117.332031 117.332031 124.121094 104.726562 130.90625 93.089844 C 130.90625 92.121094 130.90625 92.121094 130.90625 91.152344 C 130.90625 90.179688 129.9375 90.179688 128.96875 90.179688 L 95.03125 90.179688 C 92.121094 90.179688 91.152344 88.242188 91.152344 85.332031 L 91.152344 68.847656 C 91.152344 66.910156 91.152344 65.9375 92.121094 64.96875 C 93.089844 64.96875 94.058594 64.96875 96 64.96875 L 115.394531 64.96875 L 115.394531 57.210938 C 115.394531 55.273438 116.363281 54.300781 118.300781 54.300781 L 137.695312 54.300781 C 139.636719 54.300781 140.605469 55.273438 140.605469 57.210938 L 140.605469 64.96875 L 160.96875 64.96875 C 164.847656 64.96875 166.785156 66.910156 166.785156 69.816406 L 166.785156 78.542969 C 166.785156 80.484375 166.785156 82.421875 165.816406 83.394531 C 164.847656 85.332031 164.847656 86.300781 163.878906 88.242188 C 160.96875 93.089844 158.058594 99.878906 154.179688 105.695312 C 151.273438 111.515625 147.394531 118.300781 143.515625 124.121094 C 140.605469 130.90625 136.726562 136.726562 132.847656 142.542969 C 129.9375 149.332031 126.058594 155.148438 123.152344 160.96875 C 123.152344 161.9375 123.152344 161.9375 123.152344 162.90625 C 123.152344 162.90625 123.152344 163.878906 124.121094 163.878906 L 164.847656 163.878906 C 166.785156 163.878906 167.757812 163.878906 167.757812 164.847656 C 168.726562 164.847656 169.695312 165.816406 169.695312 167.757812 Z M 169.695312 185.210938 "/>
</g>
</svg>
